<svg width="28" height="27" fill="none" xmlns="http://www.w3.org/2000/svg"><path d="M23.197.007H3.934C1.76.007.103 1.664.103 3.839v19.263c0 2.174 1.657 3.831 3.831 3.831h19.263c2.175 0 3.832-1.657 3.832-3.831V3.839c0-2.175-1.657-3.832-3.832-3.832Zm-9.631 21.541c4.453 0 8.078-3.521 8.078-7.767 0-.725-.104-1.554-.31-2.175h2.277v10.978c0 .518-.414 1.035-1.035 1.035H4.556a1.038 1.038 0 0 1-1.036-1.035V11.502h2.382a7.884 7.884 0 0 0-.31 2.175c-.104 4.35 3.52 7.871 7.974 7.871Zm0-3.107c-2.9 0-5.178-2.278-5.178-5.074 0-2.797 2.278-5.075 5.178-5.075s5.178 2.278 5.178 5.075c0 2.9-2.278 5.074-5.178 5.074ZM23.508 7.36a1.15 1.15 0 0 1-1.14 1.14h-2.9a1.15 1.15 0 0 1-1.138-1.14V4.564c0-.622.518-1.14 1.139-1.14h2.9c.621 0 1.139.518 1.139 1.14V7.36Z" fill="#fff"/></svg>