<svg width="34" height="20" fill="none" xmlns="http://www.w3.org/2000/svg"><path d="M32.758 17.557c0-.131-.132-.131-.132-.263-.526-1.052-1.71-2.367-3.287-3.813-.79-.658-1.184-1.184-1.447-1.447-.394-.526-.394-.92-.263-1.446.132-.395.658-1.052 1.578-2.236.526-.657.79-1.052 1.184-1.446 1.972-2.63 2.893-4.34 2.63-5.129l-.132-.131c-.131-.132-.263-.263-.526-.263-.263-.132-.657-.132-1.052 0h-5.917l-.132.131c-.131.132-.131.132-.131.263-.526 1.447-1.184 2.63-1.841 3.945-.395.658-.79 1.315-1.184 1.841-.394.526-.657.92-.92 1.184-.263.263-.526.394-.658.657-.131.132-.394.263-.394.132-.132 0-.263 0-.263-.132l-.395-.394c-.131-.132-.131-.395-.263-.658V1.777c0-.131-.131-.394-.131-.526l-.395-.394c-.131-.132-.394-.132-.526-.263C17.504.462 16.715.33 15.794.33c-2.104 0-3.55.131-4.076.394-.263.132-.526.263-.658.526-.263.263-.263.395-.131.395.657.131 1.183.394 1.446.789l.132.263c.131.131.131.394.263.789.131.394.131.789.131 1.315v2.104c0 .657-.131 1.052-.131 1.446 0 .395-.132.658-.263.79-.132.262-.132.394-.263.394 0 0 0 .131-.132.131-.131 0-.263.132-.526.132-.131 0-.394-.132-.526-.263a1.585 1.585 0 0 1-.657-.658c-.263-.263-.526-.657-.79-1.183-.262-.526-.657-1.052-.92-1.841l-.263-.526c-.131-.263-.394-.79-.657-1.447s-.526-1.183-.79-1.84a1.815 1.815 0 0 0-.394-.527h-.131s-.132-.131-.263-.131c-.132 0-.263-.132-.395-.132H1.066c-.526 0-.789.132-.92.263l-.132.132v.263c0 .131 0 .263.132.526C.803 4.013 1.592 5.59 2.38 7.169c.79 1.446 1.578 2.761 2.104 3.682.658.92 1.184 1.84 1.841 2.63.658.789 1.052 1.315 1.184 1.578l.526.526.394.394c.263.263.658.658 1.184 1.052.526.395 1.183.79 1.84 1.184.658.394 1.447.657 2.236.92.92.263 1.71.395 2.499.263h1.972c.395 0 .658-.131.92-.394l.132-.132c0-.131.132-.131.132-.263v-.526c0-.526 0-.92.131-1.315.132-.394.132-.657.263-.92.132-.263.263-.395.395-.526l.263-.263h.131c.263-.132.658 0 .92.263.395.263.79.657 1.053 1.052.263.394.657.789 1.183 1.315.526.526.92.92 1.184 1.052l.394.263c.263.131.526.263.92.394.395.132.658.132.921.132l4.471-.132c.395 0 .79-.131 1.052-.263.263-.131.395-.263.395-.526v-.526c-.263-.263-.263-.394-.263-.526Z" fill="#fff"/></svg>